<svg width="344" height="35" viewBox="0 0 344 35" fill="none" xmlns="http://www.w3.org/2000/svg">
<path d="M341.29 29.7058L343.93 25.3965C343.988 25.2993 343.958 25.1718 343.858 25.1148C343.824 25.0947 343.79 25.0847 343.749 25.0847H340.465C340.389 25.0847 340.321 25.1215 340.287 25.1853L339.403 26.6239L338.52 25.1819C338.482 25.1182 338.413 25.0813 338.341 25.0813H335.057C334.941 25.0813 334.848 25.1718 334.848 25.2859C334.848 25.3227 334.859 25.3596 334.879 25.3932L337.52 29.7024L335.184 33.5153L334.098 31.3221C334.595 31.0639 335.009 30.6716 335.287 30.192C335.564 29.7125 335.705 29.129 335.705 28.4415C335.705 27.3483 335.362 26.5166 334.677 25.9431C333.992 25.3697 333.068 25.0847 331.9 25.0847H327.585C327.462 25.0847 327.359 25.1819 327.359 25.306V26.9291C327.195 26.5501 326.941 26.2148 326.623 25.9465C325.938 25.3731 325.01 25.088 323.842 25.088H319.531C319.407 25.088 319.305 25.1853 319.305 25.3093V34.1055C319.305 34.2263 319.404 34.3269 319.531 34.3269H322.281C322.404 34.3269 322.507 34.2296 322.507 34.1055V31.8017H323.842C325.013 31.8017 325.938 31.5166 326.623 30.9432C326.945 30.6749 327.195 30.3396 327.363 29.9606V34.1055C327.363 34.2263 327.462 34.3269 327.589 34.3269H330.284C330.407 34.3269 330.51 34.2296 330.51 34.1055V31.8017H331.116L332.277 34.1625C332.325 34.2631 332.431 34.3269 332.544 34.3269H338.341C338.417 34.3269 338.485 34.29 338.52 34.2263L339.403 32.7876L340.287 34.2263C340.324 34.29 340.393 34.3269 340.465 34.3269H343.749C343.865 34.3269 343.958 34.2363 343.958 34.1223C343.958 34.0854 343.947 34.0485 343.927 34.015L341.29 29.7058ZM323.195 29.461H322.507V27.4254H323.195C324.013 27.4254 324.424 27.7641 324.424 28.4448C324.421 29.1222 324.013 29.461 323.195 29.461ZM331.222 29.461H330.506V27.4254H331.222C332.04 27.4254 332.451 27.7641 332.451 28.4448C332.451 29.1256 332.04 29.461 331.222 29.461Z" fill="white"/>
<path d="M277.359 26.0945V29.6541H282.045V30.4825H277.359V34.3268H276.402V25.2661H282.615V26.0945H277.359Z" fill="white"/>
<path d="M290.78 34.3268L288.709 31.4144C288.476 31.4403 288.234 31.4533 287.984 31.4533H285.55V34.3268H284.593V25.2661H287.984C289.14 25.2661 290.046 25.5423 290.702 26.0945C291.358 26.6468 291.686 27.4062 291.686 28.3726C291.686 29.0802 291.505 29.68 291.142 30.1718C290.788 30.6551 290.279 31.0046 289.615 31.2203L291.828 34.3268H290.78ZM287.958 30.6378C288.855 30.6378 289.541 30.4393 290.016 30.0424C290.491 29.6455 290.728 29.0889 290.728 28.3726C290.728 27.6392 290.491 27.0783 290.016 26.69C289.541 26.293 288.855 26.0945 287.958 26.0945H285.55V30.6378H287.958Z" fill="white"/>
<path d="M297.907 34.4045C297.01 34.4045 296.194 34.206 295.461 33.809C294.736 33.4035 294.167 32.8512 293.752 32.1522C293.347 31.4533 293.144 30.668 293.144 29.7965C293.144 28.9249 293.347 28.1397 293.752 27.4407C294.167 26.7417 294.736 26.1938 295.461 25.7968C296.194 25.3913 297.01 25.1885 297.907 25.1885C298.805 25.1885 299.612 25.3869 300.328 25.7839C301.053 26.1808 301.622 26.7331 302.036 27.4407C302.451 28.1397 302.658 28.9249 302.658 29.7965C302.658 30.668 302.451 31.4576 302.036 32.1652C301.622 32.8641 301.053 33.4121 300.328 33.809C299.612 34.206 298.805 34.4045 297.907 34.4045ZM297.907 33.5502C298.624 33.5502 299.271 33.3905 299.849 33.0712C300.427 32.7433 300.88 32.2946 301.208 31.7251C301.536 31.1469 301.7 30.5041 301.7 29.7965C301.7 29.0889 301.536 28.4503 301.208 27.8808C300.88 27.3026 300.427 26.8539 299.849 26.5346C299.271 26.2067 298.624 26.0428 297.907 26.0428C297.191 26.0428 296.54 26.2067 295.953 26.5346C295.375 26.8539 294.917 27.3026 294.581 27.8808C294.253 28.4503 294.089 29.0889 294.089 29.7965C294.089 30.5041 294.253 31.1469 294.581 31.7251C294.917 32.2946 295.375 32.7433 295.953 33.0712C296.54 33.3905 297.191 33.5502 297.907 33.5502Z" fill="white"/>
<path d="M314.215 25.2661V34.3268H313.296V27.0783L309.736 33.1748H309.283L305.724 27.1171V34.3268H304.805V25.2661H305.594L309.529 31.984L313.425 25.2661H314.215Z" fill="white"/>
<path d="M0 0.673077H15.9135C19.5994 0.673077 22.8686 1.36218 25.7212 2.74039C28.5737 4.11859 30.7853 6.07372 32.3558 8.60577C33.9263 11.1378 34.7115 14.1026 34.7115 17.5C34.7115 20.8974 33.9263 23.8622 32.3558 26.3942C30.7853 28.9263 28.5737 30.8814 25.7212 32.2596C22.8686 33.6378 19.5994 34.3269 15.9135 34.3269H0V0.673077ZM15.5288 26.7308C18.4135 26.7308 20.7212 25.9135 22.4519 24.2788C24.2147 22.6442 25.0962 20.3846 25.0962 17.5C25.0962 14.6154 24.2147 12.3558 22.4519 10.7212C20.7212 9.08654 18.4135 8.26923 15.5288 8.26923H9.51923V26.7308H15.5288Z" fill="white"/>
<path d="M58.0778 35C54.5201 35 51.315 34.2468 48.4624 32.7404C45.6419 31.234 43.4143 29.1506 41.7797 26.4904C40.1771 23.8301 39.3759 20.8333 39.3759 17.5C39.3759 14.1667 40.1771 11.1699 41.7797 8.50962C43.4143 5.84936 45.6419 3.76603 48.4624 2.25961C51.315 0.753205 54.5201 0 58.0778 0C61.6355 0 64.8246 0.753205 67.6451 2.25961C70.4977 3.76603 72.7252 5.84936 74.3278 8.50962C75.9624 11.1699 76.7797 14.1667 76.7797 17.5C76.7797 20.8333 75.9624 23.8301 74.3278 26.4904C72.7252 29.1506 70.4977 31.234 67.6451 32.7404C64.8246 34.2468 61.6355 35 58.0778 35ZM58.0778 27.1154C59.7765 27.1154 61.315 26.7147 62.6932 25.9135C64.0714 25.1122 65.1611 23.9904 65.9624 22.5481C66.7637 21.0737 67.1643 19.391 67.1643 17.5C67.1643 15.609 66.7637 13.9423 65.9624 12.5C65.1611 11.0256 64.0714 9.88782 62.6932 9.08654C61.315 8.28526 59.7765 7.88462 58.0778 7.88462C56.3791 7.88462 54.8406 8.28526 53.4624 9.08654C52.0842 9.88782 50.9944 11.0256 50.1932 12.5C49.3919 13.9423 48.9912 15.609 48.9912 17.5C48.9912 19.391 49.3919 21.0737 50.1932 22.5481C50.9944 23.9904 52.0842 25.1122 53.4624 25.9135C54.8406 26.7147 56.3791 27.1154 58.0778 27.1154Z" fill="white"/>
<path d="M116.113 0.673077L101.69 34.3269H92.315L77.9401 0.673077H88.2285L97.3631 22.5962L106.69 0.673077H116.113Z" fill="white"/>
<path d="M146.489 26.9712V34.3269H119.47V0.673077H145.864V8.02885H128.893V13.7019H143.845V20.8173H128.893V26.9712H146.489Z" fill="white"/>
<path d="M160.322 8.22115H149.985V0.673077H180.13V8.22115H169.841V34.3269H160.322V8.22115Z" fill="white"/>
<path d="M206.383 27.7885H192.152L189.508 34.3269H179.797L194.652 0.673077H204.027L218.931 34.3269H209.027L206.383 27.7885ZM203.595 20.7692L199.268 10L194.941 20.7692H203.595Z" fill="white"/>
<path d="M223.479 0.673077H232.998V34.3269H223.479V0.673077Z" fill="white"/>
<path d="M241.62 0.673077H251.139V26.7788H267.197V34.3269H241.62V0.673077Z" fill="white"/>
</svg>
