<svg width="268" height="54" viewBox="0 0 268 54" fill="none" xmlns="http://www.w3.org/2000/svg">
<path d="M265.049 48.7508L267.689 44.443C267.747 44.3458 267.716 44.2184 267.617 44.1615C267.583 44.1413 267.548 44.1313 267.507 44.1313H264.224C264.149 44.1313 264.081 44.1682 264.046 44.2319L263.163 45.67L262.28 44.2285C262.242 44.1648 262.174 44.1279 262.102 44.1279H258.819C258.703 44.1279 258.61 44.2184 258.61 44.3324C258.61 44.3693 258.62 44.4062 258.641 44.4397L261.28 48.7474L258.946 52.559L257.86 50.3666C258.357 50.1085 258.771 49.7163 259.048 49.2369C259.326 48.7575 259.466 48.1742 259.466 47.487C259.466 46.3941 259.124 45.5627 258.439 44.9895C257.754 44.4162 256.83 44.1313 255.663 44.1313H251.349C251.226 44.1313 251.123 44.2285 251.123 44.3525V45.9751C250.959 45.5962 250.706 45.261 250.387 44.9928C249.703 44.4196 248.775 44.1346 247.608 44.1346H243.298C243.174 44.1346 243.072 44.2319 243.072 44.3559V53.149C243.072 53.2697 243.171 53.3703 243.298 53.3703H246.047C246.17 53.3703 246.273 53.2731 246.273 53.149V50.846H247.608C248.778 50.846 249.703 50.561 250.387 49.9878C250.709 49.7196 250.959 49.3844 251.127 49.0056V53.149C251.127 53.2697 251.226 53.3703 251.353 53.3703H254.047C254.17 53.3703 254.273 53.2731 254.273 53.149V50.846H254.879L256.039 53.206C256.087 53.3066 256.193 53.3703 256.306 53.3703H262.102C262.177 53.3703 262.246 53.3334 262.28 53.2697L263.163 51.8316L264.046 53.2697C264.084 53.3334 264.152 53.3703 264.224 53.3703H267.507C267.624 53.3703 267.716 53.2798 267.716 53.1658C267.716 53.1289 267.706 53.0921 267.685 53.0585L265.049 48.7508ZM246.961 48.5061H246.273V46.4712H246.961C247.779 46.4712 248.19 46.8098 248.19 47.4903C248.186 48.1675 247.779 48.5061 246.961 48.5061ZM254.985 48.5061H254.269V46.4712H254.985C255.803 46.4712 256.214 46.8098 256.214 47.4903C256.214 48.1708 255.803 48.5061 254.985 48.5061Z" fill="white"/>
<path d="M203.914 45.1409V48.6992H208.598V49.5273H203.914V53.3703H202.956V44.3127H209.167V45.1409H203.914Z" fill="white"/>
<path d="M217.329 53.3703L215.259 50.4589C215.026 50.4848 214.784 50.4977 214.534 50.4977H212.102V53.3703H211.144V44.3127H214.534C215.69 44.3127 216.596 44.5888 217.252 45.1409C217.907 45.6929 218.235 46.452 218.235 47.4182C218.235 48.1255 218.054 48.725 217.692 49.2167C217.338 49.6998 216.829 50.0492 216.165 50.2648L218.377 53.3703H217.329ZM214.508 49.6826C215.406 49.6826 216.091 49.4842 216.566 49.0873C217.04 48.6905 217.277 48.1342 217.277 47.4182C217.277 46.685 217.04 46.1242 216.566 45.7361C216.091 45.3393 215.406 45.1409 214.508 45.1409H212.102V49.6826H214.508Z" fill="white"/>
<path d="M224.454 53.4479C223.557 53.4479 222.742 53.2495 222.009 52.8527C221.284 52.4473 220.715 51.8952 220.301 51.1965C219.895 50.4977 219.693 49.7127 219.693 48.8415C219.693 47.9703 219.895 47.1853 220.301 46.4865C220.715 45.7878 221.284 45.2401 222.009 44.8433C222.742 44.4378 223.557 44.2351 224.454 44.2351C225.351 44.2351 226.158 44.4335 226.874 44.8303C227.599 45.2271 228.168 45.7792 228.582 46.4865C228.996 47.1853 229.203 47.9703 229.203 48.8415C229.203 49.7127 228.996 50.502 228.582 51.2094C228.168 51.9081 227.599 52.4559 226.874 52.8527C226.158 53.2495 225.351 53.4479 224.454 53.4479ZM224.454 52.5939C225.17 52.5939 225.817 52.4343 226.395 52.1151C226.973 51.7874 227.426 51.3388 227.754 50.7695C228.082 50.1915 228.246 49.5489 228.246 48.8415C228.246 48.1342 228.082 47.4958 227.754 46.9265C227.426 46.3485 226.973 45.9 226.395 45.5808C225.817 45.253 225.17 45.0891 224.454 45.0891C223.738 45.0891 223.087 45.253 222.5 45.5808C221.923 45.9 221.465 46.3485 221.129 46.9265C220.801 47.4958 220.637 48.1342 220.637 48.8415C220.637 49.5489 220.801 50.1915 221.129 50.7695C221.465 51.3388 221.923 51.7874 222.5 52.1151C223.087 52.4343 223.738 52.5939 224.454 52.5939Z" fill="white"/>
<path d="M240.756 44.3127V53.3703H239.837V46.1242L236.279 52.2187H235.826L232.268 46.1631V53.3703H231.349V44.3127H232.139L236.072 51.0282L239.967 44.3127H240.756Z" fill="white"/>
<path d="M0 0.673077H15.9135C19.5994 0.673077 22.8686 1.36218 25.7212 2.74039C28.5737 4.11859 30.7853 6.07372 32.3558 8.60577C33.9263 11.1378 34.7115 14.1026 34.7115 17.5C34.7115 20.8974 33.9263 23.8622 32.3558 26.3942C30.7853 28.9263 28.5737 30.8814 25.7212 32.2596C22.8686 33.6378 19.5994 34.3269 15.9135 34.3269H0V0.673077ZM15.5288 26.7308C18.4135 26.7308 20.7212 25.9135 22.4519 24.2788C24.2147 22.6442 25.0962 20.3846 25.0962 17.5C25.0962 14.6154 24.2147 12.3558 22.4519 10.7212C20.7212 9.08654 18.4135 8.26923 15.5288 8.26923H9.51923V26.7308H15.5288Z" fill="white"/>
<path d="M58.0778 35C54.5201 35 51.315 34.2468 48.4624 32.7404C45.6419 31.234 43.4143 29.1506 41.7797 26.4904C40.1771 23.8301 39.3759 20.8333 39.3759 17.5C39.3759 14.1667 40.1771 11.1699 41.7797 8.50962C43.4143 5.84936 45.6419 3.76603 48.4624 2.25961C51.315 0.753205 54.5201 0 58.0778 0C61.6355 0 64.8246 0.753205 67.6451 2.25961C70.4977 3.76603 72.7252 5.84936 74.3278 8.50962C75.9624 11.1699 76.7797 14.1667 76.7797 17.5C76.7797 20.8333 75.9624 23.8301 74.3278 26.4904C72.7252 29.1506 70.4977 31.234 67.6451 32.7404C64.8246 34.2468 61.6355 35 58.0778 35ZM58.0778 27.1154C59.7765 27.1154 61.315 26.7147 62.6932 25.9135C64.0714 25.1122 65.1611 23.9904 65.9624 22.5481C66.7637 21.0737 67.1643 19.391 67.1643 17.5C67.1643 15.609 66.7637 13.9423 65.9624 12.5C65.1611 11.0256 64.0714 9.88782 62.6932 9.08654C61.315 8.28526 59.7765 7.88462 58.0778 7.88462C56.3791 7.88462 54.8406 8.28526 53.4624 9.08654C52.0842 9.88782 50.9944 11.0256 50.1932 12.5C49.3919 13.9423 48.9912 15.609 48.9912 17.5C48.9912 19.391 49.3919 21.0737 50.1932 22.5481C50.9944 23.9904 52.0842 25.1122 53.4624 25.9135C54.8406 26.7147 56.3791 27.1154 58.0778 27.1154Z" fill="white"/>
<path d="M116.113 0.673077L101.69 34.3269H92.315L77.9401 0.673077H88.2285L97.3631 22.5962L106.69 0.673077H116.113Z" fill="white"/>
<path d="M146.489 26.9712V34.3269H119.47V0.673077H145.864V8.02885H128.893V13.7019H143.845V20.8173H128.893V26.9712H146.489Z" fill="white"/>
<path d="M160.322 8.22115H149.985V0.673077H180.13V8.22115H169.841V34.3269H160.322V8.22115Z" fill="white"/>
<path d="M206.383 27.7885H192.152L189.508 34.3269H179.797L194.652 0.673077H204.027L218.931 34.3269H209.027L206.383 27.7885ZM203.595 20.7692L199.268 10L194.941 20.7692H203.595Z" fill="white"/>
<path d="M223.479 0.673077H232.998V34.3269H223.479V0.673077Z" fill="white"/>
<path d="M241.62 0.673077H251.139V26.7788H267.197V34.3269H241.62V0.673077Z" fill="white"/>
</svg>
