<svg width="48" height="49" viewBox="0 0 48 49" fill="none" xmlns="http://www.w3.org/2000/svg">
<path d="M35.7889 24.5274L47.0985 13.212C47.2822 13.0285 47.3855 12.779 47.3855 12.5193C47.3855 12.2596 47.2822 12.0101 47.0985 11.8265L36.4813 1.2039C36.2978 1.02011 36.0485 0.91676 35.7889 0.91676C35.5293 0.91676 35.28 1.02011 35.0965 1.2039L23.7869 12.5193L23.7621 12.4945L12.4525 1.18021C12.269 0.996416 12.0197 0.893066 11.7601 0.893066C11.5005 0.893066 11.2512 0.996416 11.0677 1.18021L0.45051 11.8028C0.26681 11.9864 0.163513 12.2359 0.163513 12.4956C0.163513 12.7553 0.26681 13.0048 0.45051 13.1883L11.7838 24.5274L0.45051 35.8665C0.26681 36.0501 0.163513 36.2995 0.163513 36.5592C0.163513 36.819 0.26681 37.0684 0.45051 37.252L11.0677 47.8724C11.2512 48.0562 11.5005 48.1595 11.7601 48.1595C12.0197 48.1595 12.269 48.0562 12.4525 47.8724L20.4523 39.8685C20.4523 39.8685 20.7106 34.9582 14.9481 27.6945L23.7847 36.5344L35.0965 47.8509C35.28 48.0347 35.5293 48.1381 35.7889 48.1381C36.0485 48.1381 36.2978 48.0347 36.4813 47.8509L47.0985 37.2283C47.2822 37.0447 47.3855 36.7953 47.3855 36.5356C47.3855 36.2758 47.2822 36.0264 47.0985 35.8428L35.7889 24.5274Z" />
</svg>
