<svg width="50" height="50" viewBox="0 0 50 50" fill="none" xmlns="http://www.w3.org/2000/svg">
<g clip-path="url(#clip0_2305_23085)">
<path d="M37.4968 24.7986L37.1436 25.1521L37.4968 25.5055L49.4581 37.4753L49.4583 37.4755C49.5587 37.5758 49.6153 37.7124 49.6153 37.8547C49.6153 37.9969 49.5587 38.1335 49.4583 38.2338L49.4581 38.2341L38.2291 49.471L38.2289 49.4712C38.1287 49.5717 37.9923 49.6282 37.8505 49.6282C37.7087 49.6282 37.5723 49.5717 37.4721 49.4712L37.4718 49.471L25.5081 37.5L25.178 37.8299L25.5081 37.5L16.1623 28.1488L15.4169 28.813C18.427 32.608 19.8523 35.7722 20.5269 37.9695C20.8643 39.0687 21.0146 39.928 21.0808 40.5056C21.1139 40.7945 21.1261 41.0131 21.1301 41.1562C21.1303 41.1619 21.1304 41.1674 21.1306 41.1728L12.8156 49.4937L12.8154 49.4939C12.7152 49.5943 12.5788 49.6509 12.437 49.6509C12.2952 49.6509 12.1588 49.5943 12.0586 49.4939L12.0583 49.4937L0.829295 38.2591L0.829116 38.2589C0.728749 38.1586 0.672119 38.022 0.672119 37.8797C0.672119 37.7375 0.728749 37.6009 0.829116 37.5006L0.829333 37.5003L12.8157 25.5055L13.1689 25.1521L12.8157 24.7986L0.829333 12.8038L0.829116 12.8036C0.728749 12.7033 0.672119 12.5666 0.672119 12.4244C0.672119 12.2822 0.728748 12.1456 0.829116 12.0452L0.829333 12.045L12.0584 0.808057L12.0586 0.80784C12.1588 0.707413 12.2952 0.650879 12.437 0.650879C12.5788 0.650879 12.7152 0.707414 12.8154 0.80784L12.8156 0.808075L24.7769 12.7766L24.7769 12.7767L24.8032 12.8029L25.1568 13.1568L25.5105 12.8029L37.4719 0.833121L37.4721 0.832904C37.5723 0.732478 37.7087 0.675943 37.8505 0.675943C37.9923 0.675943 38.1287 0.732478 38.2289 0.832904L38.2291 0.833121L49.4581 12.0701L49.4583 12.0703C49.5587 12.1706 49.6153 12.3072 49.6153 12.4495C49.6153 12.5917 49.5587 12.7283 49.4583 12.8286L49.4581 12.8289L37.4968 24.7986Z" stroke="#007EB2"/>
</g>
<defs>
<clipPath id="clip0_2305_23085">
<rect width="50" height="50" fill="white"/>
</clipPath>
</defs>
</svg>
