<svg
  width="326"
  height="57"
  viewBox="0 0 326 57"
  fill="none"
  xmlns="http://www.w3.org/2000/svg"
>
<path
    d="M81.8327 18.7C83.9407 18.7 85.7654 19.0513 87.3067 19.754C88.8707 20.4567 90.0721 21.454 90.9107 22.746C91.7494 24.038 92.1687 25.568 92.1687 27.336C92.1687 29.0813 91.7494 30.6113 90.9107 31.926C90.0721 33.218 88.8707 34.2153 87.3067 34.918C85.7654 35.598 83.9407 35.938 81.8327 35.938H77.0387V42.5H71.5307V18.7H81.8327ZM81.5267 31.45C83.1814 31.45 84.4394 31.0987 85.3007 30.396C86.1621 29.6707 86.5927 28.6507 86.5927 27.336C86.5927 25.9987 86.1621 24.9787 85.3007 24.276C84.4394 23.5507 83.1814 23.188 81.5267 23.188H77.0387V31.45H81.5267ZM110.478 42.5L105.888 35.87H105.616H100.822V42.5H95.3136V18.7H105.616C107.724 18.7 109.548 19.0513 111.09 19.754C112.654 20.4567 113.855 21.454 114.694 22.746C115.532 24.038 115.952 25.568 115.952 27.336C115.952 29.104 115.521 30.634 114.66 31.926C113.821 33.1953 112.62 34.17 111.056 34.85L116.394 42.5H110.478ZM110.376 27.336C110.376 25.9987 109.945 24.9787 109.084 24.276C108.222 23.5507 106.964 23.188 105.31 23.188H100.822V31.484H105.31C106.964 31.484 108.222 31.1213 109.084 30.396C109.945 29.6707 110.376 28.6507 110.376 27.336ZM133.858 42.5L128.112 34.238L122.468 42.5H116.144L124.95 30.396L116.586 18.7H122.842L128.316 26.418L133.688 18.7H139.638L131.342 30.192L140.216 42.5H133.858ZM151.189 18.7H162.001C164.585 18.7 166.863 19.1987 168.835 20.196C170.83 21.1707 172.371 22.5533 173.459 24.344C174.57 26.1347 175.125 28.22 175.125 30.6C175.125 32.98 174.57 35.0653 173.459 36.856C172.371 38.6467 170.83 40.0407 168.835 41.038C166.863 42.0127 164.585 42.5 162.001 42.5H151.189V18.7ZM161.729 37.978C164.109 37.978 166.002 37.3207 167.407 36.006C168.835 34.6687 169.549 32.8667 169.549 30.6C169.549 28.3333 168.835 26.5427 167.407 25.228C166.002 23.8907 164.109 23.222 161.729 23.222H156.697V37.978H161.729ZM190.018 42.908C187.547 42.908 185.314 42.3753 183.32 41.31C181.348 40.2447 179.795 38.7827 178.662 36.924C177.551 35.0427 176.996 32.9347 176.996 30.6C176.996 28.2653 177.551 26.1687 178.662 24.31C179.795 22.4287 181.348 20.9553 183.32 19.89C185.314 18.8247 187.547 18.292 190.018 18.292C192.488 18.292 194.71 18.8247 196.682 19.89C198.654 20.9553 200.206 22.4287 201.34 24.31C202.473 26.1687 203.04 28.2653 203.04 30.6C203.04 32.9347 202.473 35.0427 201.34 36.924C200.206 38.7827 198.654 40.2447 196.682 41.31C194.71 42.3753 192.488 42.908 190.018 42.908ZM190.018 38.216C191.423 38.216 192.692 37.8987 193.826 37.264C194.959 36.6067 195.843 35.7 196.478 34.544C197.135 33.388 197.464 32.0733 197.464 30.6C197.464 29.1267 197.135 27.812 196.478 26.656C195.843 25.5 194.959 24.6047 193.826 23.97C192.692 23.3127 191.423 22.984 190.018 22.984C188.612 22.984 187.343 23.3127 186.21 23.97C185.076 24.6047 184.181 25.5 183.524 26.656C182.889 27.812 182.572 29.1267 182.572 30.6C182.572 32.0733 182.889 33.388 183.524 34.544C184.181 35.7 185.076 36.6067 186.21 37.264C187.343 37.8987 188.612 38.216 190.018 38.216ZM228.477 18.7L218.175 42.5H212.735L202.467 18.7H208.417L215.659 35.7L223.003 18.7H228.477ZM248.104 38.08V42.5H229.676V18.7H247.662V23.12H235.15V28.288H246.2V32.572H235.15V38.08H248.104ZM256.629 23.188H249.013V18.7H269.753V23.188H262.137V42.5H256.629V23.188ZM286.408 37.4H275.358L273.25 42.5H267.606L278.214 18.7H283.654L294.296 42.5H288.516L286.408 37.4ZM284.674 33.218L280.9 24.106L277.126 33.218H284.674ZM295.978 18.7H301.486V42.5H295.978V18.7ZM306.347 18.7H311.855V38.012H323.789V42.5H306.347V18.7Z"
    fill="white"
  />
<path
    d="M35.7889 28.5274L47.0985 17.212C47.2822 17.0285 47.3855 16.779 47.3855 16.5193C47.3855 16.2596 47.2822 16.0101 47.0985 15.8265L36.4813 5.2039C36.2978 5.02011 36.0485 4.91676 35.7889 4.91676C35.5293 4.91676 35.28 5.02011 35.0965 5.2039L23.7869 16.5193L23.7621 16.4945L12.4525 5.18021C12.269 4.99642 12.0197 4.89307 11.7601 4.89307C11.5005 4.89307 11.2512 4.99642 11.0677 5.18021L0.45051 15.8028C0.26681 15.9864 0.163513 16.2359 0.163513 16.4956C0.163513 16.7553 0.26681 17.0048 0.45051 17.1883L11.7838 28.5274L0.45051 39.8665C0.26681 40.0501 0.163513 40.2995 0.163513 40.5592C0.163513 40.819 0.26681 41.0684 0.45051 41.252L11.0677 51.8724C11.2512 52.0562 11.5005 52.1595 11.7601 52.1595C12.0197 52.1595 12.269 52.0562 12.4525 51.8724L20.4523 43.8685C20.4523 43.8685 20.7106 38.9582 14.9481 31.6945L23.7847 40.5344L35.0965 51.8509C35.28 52.0347 35.5293 52.1381 35.7889 52.1381C36.0485 52.1381 36.2978 52.0347 36.4813 51.8509L47.0985 41.2283C47.2822 41.0447 47.3855 40.7953 47.3855 40.5356C47.3855 40.2758 47.2822 40.0264 47.0985 39.8428L35.7889 28.5274Z"
    fill="white"
  />
</svg>
