<svg width="333" height="35" viewBox="0 0 333 35" fill="none" xmlns="http://www.w3.org/2000/svg">
<path d="M108.217 17.6291L115.914 4.80072C116.084 4.51121 115.994 4.13185 115.705 3.96214C115.605 3.90224 115.505 3.87229 115.385 3.87229H105.812C105.592 3.87229 105.392 3.9821 105.292 4.17178L102.717 8.45456L100.141 4.1618C100.031 3.97212 99.8316 3.8623 99.6219 3.8623H90.0481C89.7087 3.8623 89.4391 4.13185 89.4391 4.47128C89.4391 4.58109 89.4691 4.69091 89.529 4.79074L97.226 17.6191L90.4175 28.97L87.2528 22.441C88.7004 21.6723 89.9083 20.5043 90.7169 19.0767C91.5256 17.6491 91.9349 15.912 91.9349 13.8654C91.9349 10.6109 90.9366 8.1351 88.9399 6.42798C86.9433 4.72086 84.2479 3.87229 80.8436 3.87229H68.2648C67.9054 3.87229 67.6059 4.1618 67.6059 4.53118V9.36303C67.1267 8.23493 66.388 7.23662 65.4595 6.43796C63.4629 4.73084 60.7575 3.88227 57.3532 3.88227H44.7844C44.425 3.88227 44.1255 4.17178 44.1255 4.54116V30.727C44.1255 31.0864 44.415 31.3859 44.7844 31.3859H52.8009C53.1603 31.3859 53.4598 31.0964 53.4598 30.727V23.8686H57.3532C60.7674 23.8686 63.4629 23.02 65.4595 21.3129C66.3979 20.5142 67.1267 19.5159 67.6159 18.3878V30.727C67.6159 31.0864 67.9054 31.3859 68.2748 31.3859H76.1315C76.4909 31.3859 76.7904 31.0964 76.7904 30.727V23.8686H78.5574L81.9417 30.8967C82.0815 31.1962 82.391 31.3859 82.7204 31.3859H99.6219C99.8416 31.3859 100.041 31.2761 100.141 31.0864L102.717 26.8036L105.292 31.0864C105.402 31.2761 105.602 31.3859 105.812 31.3859H115.385C115.725 31.3859 115.994 31.1164 115.994 30.7769C115.994 30.6671 115.964 30.5573 115.904 30.4575L108.217 17.6291ZM55.4664 16.9003H53.4598V10.8405H55.4664C57.8523 10.8405 59.0503 11.8488 59.0503 13.8754C59.0403 15.892 57.8523 16.9003 55.4664 16.9003ZM78.8669 16.9003H76.7804V10.8405H78.8669C81.2529 10.8405 82.4509 11.8488 82.4509 13.8754C82.4509 15.902 81.2529 16.9003 78.8669 16.9003Z" fill="white"/>
<path d="M26.3843 17.5203L34.722 9.18261C34.8574 9.04735 34.9336 8.86353 34.9336 8.67216C34.9336 8.48078 34.8574 8.29696 34.722 8.1617L26.8948 0.334507C26.7595 0.199079 26.5757 0.122927 26.3843 0.122927C26.1929 0.122927 26.0091 0.199079 25.8739 0.334507L17.5362 8.67216L17.5179 8.65387L9.18028 0.317048C9.04502 0.181621 8.86121 0.105469 8.66983 0.105469C8.47846 0.105469 8.29464 0.181621 8.15938 0.317048L0.332185 8.14425C0.196757 8.27951 0.120605 8.46332 0.120605 8.6547C0.120605 8.84607 0.196757 9.02989 0.332185 9.16515L8.68729 17.5203L0.332185 25.8754C0.196757 26.0106 0.120605 26.1944 0.120605 26.3858C0.120605 26.5772 0.196757 26.761 0.332185 26.8963L8.15938 34.7218C8.29464 34.8572 8.47846 34.9334 8.66983 34.9334C8.86121 34.9334 9.04502 34.8572 9.18028 34.7218L15.0779 28.8242C15.0779 28.8242 15.2683 25.2061 11.0201 19.8539L17.5346 26.3675L25.8739 34.706C26.0091 34.8414 26.1929 34.9176 26.3843 34.9176C26.5757 34.9176 26.7595 34.8414 26.8948 34.706L34.722 26.8788C34.8574 26.7435 34.9336 26.5597 34.9336 26.3684C34.9336 26.177 34.8574 25.9932 34.722 25.8579L26.3843 17.5203Z" fill="white"/>
<path d="M123 3.87062H135.72C138.76 3.87062 141.44 4.44594 143.76 5.59659C146.107 6.72108 147.92 8.31629 149.2 10.3822C150.507 12.4482 151.16 14.854 151.16 17.5999C151.16 20.3458 150.507 22.7517 149.2 24.8176C147.92 26.8835 146.107 28.4918 143.76 29.6424C141.44 30.7669 138.76 31.3292 135.72 31.3292H123V3.87062ZM135.4 26.1121C138.2 26.1121 140.427 25.3537 142.08 23.8369C143.76 22.294 144.6 20.215 144.6 17.5999C144.6 14.9848 143.76 12.9189 142.08 11.4021C140.427 9.8592 138.2 9.08775 135.4 9.08775H129.48V26.1121H135.4Z" fill="white"/>
<path d="M169.607 31.7999C166.7 31.7999 164.074 31.1854 161.727 29.9563C159.407 28.7272 157.58 27.0404 156.247 24.896C154.94 22.7255 154.287 20.2935 154.287 17.5999C154.287 14.9063 154.94 12.4874 156.247 10.343C157.58 8.17246 159.407 6.47265 161.727 5.24355C164.074 4.01445 166.7 3.3999 169.607 3.3999C172.514 3.3999 175.127 4.01445 177.447 5.24355C179.767 6.47265 181.594 8.17246 182.927 10.343C184.26 12.4874 184.927 14.9063 184.927 17.5999C184.927 20.2935 184.26 22.7255 182.927 24.896C181.594 27.0404 179.767 28.7272 177.447 29.9563C175.127 31.1854 172.514 31.7999 169.607 31.7999ZM169.607 26.3866C171.26 26.3866 172.754 26.0205 174.087 25.2883C175.42 24.5299 176.46 23.4839 177.207 22.1502C177.98 20.8165 178.367 19.2997 178.367 17.5999C178.367 15.9001 177.98 14.3833 177.207 13.0496C176.46 11.7159 175.42 10.683 174.087 9.95073C172.754 9.19235 171.26 8.81316 169.607 8.81316C167.954 8.81316 166.46 9.19235 165.127 9.95073C163.794 10.683 162.74 11.7159 161.967 13.0496C161.22 14.3833 160.847 15.9001 160.847 17.5999C160.847 19.2997 161.22 20.8165 161.967 22.1502C162.74 23.4839 163.794 24.5299 165.127 25.2883C166.46 26.0205 167.954 26.3866 169.607 26.3866Z" fill="white"/>
<path d="M215.779 3.87062L203.659 31.3292H197.259L185.179 3.87062H192.179L200.699 23.4839L209.339 3.87062H215.779Z" fill="white"/>
<path d="M239.797 26.2297V31.3292H218.117V3.87062H239.277V8.97007H224.557V14.9325H237.557V19.875H224.557V26.2297H239.797Z" fill="white"/>
<path d="M250.753 9.04852H241.793V3.87062H266.193V9.04852H257.233V31.3292H250.753V9.04852Z" fill="white"/>
<path d="M286.713 25.4452H273.713L271.233 31.3292H264.593L277.073 3.87062H283.473L295.993 31.3292H289.193L286.713 25.4452ZM284.673 20.6203L280.233 10.1076L275.793 20.6203H284.673Z" fill="white"/>
<path d="M298.898 3.87062H305.378V31.3292H298.898V3.87062Z" fill="white"/>
<path d="M312.023 3.87062H318.503V26.1513H332.543V31.3292H312.023V3.87062Z" fill="white"/>
</svg>
