<svg width="50" height="50" viewBox="0 0 50 50" fill="none" xmlns="http://www.w3.org/2000/svg">
<path d="M37.1431 24.4452L36.4368 25.1521L37.1431 25.8589L49.1044 37.8287L49.1049 37.8291C49.1113 37.8356 49.1153 37.845 49.1153 37.8547C49.1153 37.8644 49.1113 37.8738 49.1049 37.8802L49.1044 37.8806L37.8754 49.1176L37.875 49.118C37.8686 49.1245 37.8595 49.1282 37.8505 49.1282C37.8414 49.1282 37.8324 49.1245 37.826 49.118L37.8255 49.1176L25.8618 37.1466L25.2331 37.7749L25.8618 37.1466L16.516 27.7954L15.0252 29.1237C17.998 32.8717 19.3933 35.9808 20.0489 38.1162C20.3771 39.1852 20.5212 40.0144 20.5841 40.5626C20.6027 40.725 20.6142 40.8629 20.6213 40.9752L12.4619 49.1403L12.4615 49.1407C12.4551 49.1471 12.446 49.1509 12.437 49.1509C12.4279 49.1509 12.4189 49.1471 12.4125 49.1407L12.412 49.1402L1.18294 37.9056L1.18258 37.9053C1.17613 37.8988 1.17212 37.8894 1.17212 37.8797C1.17212 37.87 1.17613 37.8607 1.18258 37.8542L1.18301 37.8538L13.1694 25.8589L13.8757 25.1521L13.1694 24.4452L1.18301 12.4504L1.18258 12.4499C1.17613 12.4435 1.17212 12.4341 1.17212 12.4244C1.17212 12.4147 1.17613 12.4053 1.18258 12.3989L1.18301 12.3984L12.412 1.16149L12.4125 1.16105C12.4189 1.15462 12.4279 1.15088 12.437 1.15088C12.446 1.15088 12.4551 1.15462 12.4615 1.16105L12.462 1.16152L24.4233 13.1301L24.4233 13.1301L24.4495 13.1563L25.1568 13.8642L25.8642 13.1563L37.8255 1.18655L37.826 1.18612C37.8324 1.17969 37.8414 1.17594 37.8505 1.17594C37.8595 1.17594 37.8686 1.17969 37.875 1.18612L37.8754 1.18655L49.1044 12.4235L49.1049 12.4239C49.1113 12.4304 49.1153 12.4398 49.1153 12.4495C49.1153 12.4592 49.1113 12.4686 49.1049 12.475L49.1044 12.4754L37.1431 24.4452Z" stroke="white" stroke-width="2"/>
</svg>
