<svg
  width="333"
  height="35"
  viewBox="0 0 333 35"
  fill="none"
  xmlns="http://www.w3.org/2000/svg"
>
<path
    d="M108.217 17.6291L115.914 4.80072C116.084 4.51121 115.994 4.13185 115.705 3.96214C115.605 3.90224 115.505 3.87229 115.385 3.87229H105.812C105.592 3.87229 105.392 3.9821 105.292 4.17178L102.717 8.45456L100.141 4.1618C100.031 3.97212 99.8316 3.8623 99.6219 3.8623H90.0481C89.7087 3.8623 89.4391 4.13185 89.4391 4.47128C89.4391 4.58109 89.4691 4.69091 89.529 4.79074L97.226 17.6191L90.4175 28.97L87.2528 22.441C88.7004 21.6723 89.9083 20.5043 90.7169 19.0767C91.5256 17.6491 91.9349 15.912 91.9349 13.8654C91.9349 10.6109 90.9366 8.1351 88.9399 6.42798C86.9433 4.72086 84.2479 3.87229 80.8436 3.87229H68.2648C67.9054 3.87229 67.6059 4.1618 67.6059 4.53118V9.36303C67.1267 8.23493 66.388 7.23662 65.4595 6.43796C63.4629 4.73084 60.7575 3.88227 57.3532 3.88227H44.7844C44.425 3.88227 44.1255 4.17178 44.1255 4.54116V30.727C44.1255 31.0864 44.415 31.3859 44.7844 31.3859H52.8009C53.1603 31.3859 53.4598 31.0964 53.4598 30.727V23.8686H57.3532C60.7674 23.8686 63.4629 23.02 65.4595 21.3129C66.3979 20.5142 67.1267 19.5159 67.6159 18.3878V30.727C67.6159 31.0864 67.9054 31.3859 68.2748 31.3859H76.1315C76.4909 31.3859 76.7904 31.0964 76.7904 30.727V23.8686H78.5574L81.9417 30.8967C82.0815 31.1962 82.391 31.3859 82.7204 31.3859H99.6219C99.8416 31.3859 100.041 31.2761 100.141 31.0864L102.717 26.8036L105.292 31.0864C105.402 31.2761 105.602 31.3859 105.812 31.3859H115.385C115.725 31.3859 115.994 31.1164 115.994 30.7769C115.994 30.6671 115.964 30.5573 115.904 30.4575L108.217 17.6291ZM55.4664 16.9003H53.4598V10.8405H55.4664C57.8523 10.8405 59.0503 11.8488 59.0503 13.8754C59.0403 15.892 57.8523 16.9003 55.4664 16.9003ZM78.8669 16.9003H76.7804V10.8405H78.8669C81.2529 10.8405 82.4509 11.8488 82.4509 13.8754C82.4509 15.902 81.2529 16.9003 78.8669 16.9003Z"
    fill="white"
  />
<path
    d="M26.3843 17.5203L34.722 9.18261C34.8574 9.04735 34.9336 8.86353 34.9336 8.67216C34.9336 8.48078 34.8574 8.29696 34.722 8.1617L26.8948 0.334507C26.7595 0.199079 26.5757 0.122927 26.3843 0.122927C26.1929 0.122927 26.0091 0.199079 25.8739 0.334507L17.5362 8.67216L17.5179 8.65387L9.18028 0.317048C9.04502 0.181621 8.86121 0.105469 8.66983 0.105469C8.47846 0.105469 8.29464 0.181621 8.15938 0.317048L0.332185 8.14425C0.196757 8.27951 0.120605 8.46332 0.120605 8.6547C0.120605 8.84607 0.196757 9.02989 0.332185 9.16515L8.68729 17.5203L0.332185 25.8754C0.196757 26.0106 0.120605 26.1944 0.120605 26.3858C0.120605 26.5772 0.196757 26.761 0.332185 26.8963L8.15938 34.7218C8.29464 34.8572 8.47846 34.9334 8.66983 34.9334C8.86121 34.9334 9.04502 34.8572 9.18028 34.7218L15.0779 28.8242C15.0779 28.8242 15.2683 25.2061 11.0201 19.8539L17.5346 26.3675L25.8739 34.706C26.0091 34.8414 26.1929 34.9176 26.3843 34.9176C26.5757 34.9176 26.7595 34.8414 26.8948 34.706L34.722 26.8788C34.8574 26.7435 34.9336 26.5597 34.9336 26.3684C34.9336 26.177 34.8574 25.9932 34.722 25.8579L26.3843 17.5203Z"
    fill="white"
  />
<path
    d="M123.32 4.00002H136.04C139.08 4.00002 141.76 4.58669 144.08 5.76002C146.427 6.90669 148.24 8.53335 149.52 10.64C150.827 12.7467 151.48 15.2 151.48 18C151.48 20.8 150.827 23.2534 149.52 25.36C148.24 27.4667 146.427 29.1067 144.08 30.28C141.76 31.4267 139.08 32 136.04 32H123.32V4.00002ZM135.72 26.68C138.52 26.68 140.747 25.9067 142.4 24.36C144.08 22.7867 144.92 20.6667 144.92 18C144.92 15.3334 144.08 13.2267 142.4 11.68C140.747 10.1067 138.52 9.32002 135.72 9.32002H129.8V26.68H135.72Z"
    fill="white"
  />
<path
    d="M169.927 32.48C167.02 32.48 164.394 31.8534 162.047 30.6C159.727 29.3467 157.9 27.6267 156.567 25.44C155.26 23.2267 154.607 20.7467 154.607 18C154.607 15.2534 155.26 12.7867 156.567 10.6C157.9 8.38669 159.727 6.65335 162.047 5.40002C164.394 4.14669 167.02 3.52002 169.927 3.52002C172.834 3.52002 175.447 4.14669 177.767 5.40002C180.087 6.65335 181.914 8.38669 183.247 10.6C184.58 12.7867 185.247 15.2534 185.247 18C185.247 20.7467 184.58 23.2267 183.247 25.44C181.914 27.6267 180.087 29.3467 177.767 30.6C175.447 31.8534 172.834 32.48 169.927 32.48ZM169.927 26.96C171.58 26.96 173.074 26.5867 174.407 25.84C175.74 25.0667 176.78 24 177.527 22.64C178.3 21.28 178.687 19.7334 178.687 18C178.687 16.2667 178.3 14.72 177.527 13.36C176.78 12 175.74 10.9467 174.407 10.2C173.074 9.42669 171.58 9.04002 169.927 9.04002C168.274 9.04002 166.78 9.42669 165.447 10.2C164.114 10.9467 163.06 12 162.287 13.36C161.54 14.72 161.167 16.2667 161.167 18C161.167 19.7334 161.54 21.28 162.287 22.64C163.06 24 164.114 25.0667 165.447 25.84C166.78 26.5867 168.274 26.96 169.927 26.96Z"
    fill="white"
  />
<path
    d="M216.099 4.00002L203.979 32H197.579L185.499 4.00002H192.499L201.019 24L209.659 4.00002H216.099Z"
    fill="white"
  />
<path
    d="M240.117 26.8V32H218.437V4.00002H239.597V9.20002H224.877V15.28H237.877V20.32H224.877V26.8H240.117Z"
    fill="white"
  />
<path
    d="M251.073 9.28002H242.113V4.00002H266.513V9.28002H257.553V32H251.073V9.28002Z"
    fill="white"
  />
<path
    d="M287.033 26H274.033L271.553 32H264.913L277.393 4.00002H283.794L296.314 32H289.514L287.033 26ZM284.993 21.08L280.553 10.36L276.113 21.08H284.993Z"
    fill="white"
  />
<path d="M299.219 4.00002H305.699V32H299.219V4.00002Z" fill="white" />
<path
    d="M312.344 4.00002H318.824V26.72H332.863V32H312.344V4.00002Z"
    fill="white"
  />
</svg>
