<svg
  width="100"
  height="79"
  viewBox="0 0 100 79"
  fill="none"
  xmlns="http://www.w3.org/2000/svg"
>
<path
    d="M37.6371 7.32047L37.6471 7.33044L37.6574 7.34023C41.5142 11.0323 43.4883 15.948 43.4883 22.246C43.4883 25.2086 43.116 28.1755 42.3681 31.1493C41.6175 34.1343 40.0185 38.6895 37.5367 44.8577C37.5365 44.8581 37.5363 44.8586 37.5362 44.859L24.3972 77.2879H4.29684L13.8011 42.5708L14.1435 41.3201L12.9554 40.8004C9.32768 39.2136 6.53402 36.8547 4.52673 33.7189C2.53254 30.6036 1.5 26.8027 1.5 22.246C1.5 15.948 3.47418 11.0323 7.33098 7.34023L7.33172 7.33952C11.3793 3.45946 16.4356 1.5 22.6107 1.5C28.7861 1.5 33.7526 3.45884 37.6371 7.32047ZM92.6488 7.32047L92.6588 7.33044L92.669 7.34023C96.5258 11.0323 98.5 15.948 98.5 22.246C98.5 25.2086 98.1276 28.1755 97.3798 31.1493C96.6291 34.1343 95.0302 38.6895 92.5483 44.8577C92.5481 44.8581 92.548 44.8586 92.5478 44.859L79.4089 77.2879H59.3085L68.8127 42.5708L69.1551 41.3201L67.9671 40.8004C64.3393 39.2136 61.5457 36.8547 59.5384 33.7189C57.5442 30.6036 56.5117 26.8027 56.5117 22.246C56.5117 15.948 58.4858 11.0323 62.3426 7.34023L62.3434 7.33952C66.3909 3.45946 71.4473 1.5 77.6224 1.5C83.7977 1.5 88.7643 3.45884 92.6488 7.32047Z"
    stroke="#ffffff"
    stroke-width="3"
  />
</svg>
