<svg width="100" height="100" viewBox="0 0 100 100" fill="none" xmlns="http://www.w3.org/2000/svg">
<path d="M26.5206 85.9893C26.5206 92.8985 20.9195 98.4996 14.0103 98.4996C7.10104 98.4996 1.5 92.8985 1.5 85.9893C1.5 79.08 7.10104 73.479 14.0103 73.479C20.9195 73.479 26.5206 79.08 26.5206 85.9893Z" stroke="white" stroke-width="3"/>
<path d="M1.5 16.7009V1.5112C54.6872 2.30626 97.6937 45.3128 98.4888 98.5H83.2991C82.5076 53.6825 46.3175 17.4924 1.5 16.7009ZM1.5 53.0866V37.8931C34.6335 38.6771 61.3229 65.3665 62.1069 98.5H46.9134C46.1351 73.7975 26.2025 53.8649 1.5 53.0866Z" stroke="white" stroke-width="3"/>
</svg>
